<?xml version="1.0"?>
<svg xmlns="http://www.w3.org/2000/svg" height="512px" viewBox="0 0 512 512" width="512px"><g><g id="Outline"><path d="m432 192h32v16h-32z" data-original="#000000" class="active-path" data-old_color="#000000" fill="#494D51"/><path d="m432 232h32v16h-32z" data-original="#000000" class="active-path" data-old_color="#000000" fill="#494D51"/><path d="m432 272h32v16h-32z" data-original="#000000" class="active-path" data-old_color="#000000" fill="#494D51"/><path d="m296 72h112v16h-112z" data-original="#000000" class="active-path" data-old_color="#000000" fill="#494D51"/><path d="m296 112h168v16h-168z" data-original="#000000" class="active-path" data-old_color="#000000" fill="#494D51"/><path d="m400 152h64v16h-64z" data-original="#000000" class="active-path" data-old_color="#000000" fill="#494D51"/><path d="m296 144h16v16h-16z" data-original="#000000" class="active-path" data-old_color="#000000" fill="#494D51"/><path d="m408 200h-8v240h-151.015l128.955-32.239a8 8 0 0 0 6.06-7.761v-240a8 8 0 0 0 -9.94-7.761l-129.7 32.425a47.926 47.926 0 0 0 -32.19 26.967 39.87 39.87 0 0 0 -28.17-11.631h-160a8 8 0 0 0 -8 8v280a8 8 0 0 0 8 8h384a8 8 0 0 0 8-8v-280a8 8 0 0 0 -8-8zm-376 280v-24h152a24.028 24.028 0 0 1 24 24zm176-31.981a39.8 39.8 0 0 0 -24-8.019h-152v-224h152a24.028 24.028 0 0 1 24 24zm16-208.019v-8.769a31.952 31.952 0 0 1 24.239-31.044l119.761-29.941v223.508l-123.642 30.91a47.934 47.934 0 0 0 -20.358 10.766zm176 240h-176a24.028 24.028 0 0 1 24-24h152z" data-original="#000000" class="active-path" data-old_color="#000000" fill="#494D51"/><path d="m245.404 208h101.193v16h-101.193z" transform="matrix(.949 -.316 .316 .949 -53.115 104.688)" data-original="#000000" class="active-path" data-old_color="#000000" fill="#494D51"/><path d="m245.404 248h101.193v16h-101.193z" transform="matrix(.949 -.316 .316 .949 -65.765 106.74)" data-original="#000000" class="active-path" data-old_color="#000000" fill="#494D51"/><path d="m245.404 288h101.193v16h-101.193z" transform="matrix(.949 -.316 .316 .949 -78.414 108.793)" data-original="#000000" class="active-path" data-old_color="#000000" fill="#494D51"/><path d="m245.404 328h101.193v16h-101.193z" transform="matrix(.949 -.316 .316 .949 -91.063 110.846)" data-original="#000000" class="active-path" data-old_color="#000000" fill="#494D51"/><path d="m245.404 368h101.193v16h-101.193z" transform="matrix(.949 -.316 .316 .949 -103.712 112.898)" data-original="#000000" class="active-path" data-old_color="#000000" fill="#494D51"/><path d="m56 240h120v16h-120z" data-original="#000000" class="active-path" data-old_color="#000000" fill="#494D51"/><path d="m56 280h120v16h-120z" data-original="#000000" class="active-path" data-old_color="#000000" fill="#494D51"/><path d="m56 320h120v16h-120z" data-original="#000000" class="active-path" data-old_color="#000000" fill="#494D51"/><path d="m56 360h120v16h-120z" data-original="#000000" class="active-path" data-old_color="#000000" fill="#494D51"/><path d="m56 400h120v16h-120z" data-original="#000000" class="active-path" data-old_color="#000000" fill="#494D51"/><path d="m68 184a52.059 52.059 0 0 0 52-52c0-.076 0-.151-.006-.227a21.032 21.032 0 0 1 24.012 0c0 .076-.006.151-.006.227a52 52 0 0 0 104 0c0-1.347-.068-2.678-.169-4h.169v-80a32 32 0 0 0 -64 0v8h16v-8a16 16 0 0 1 32 0v46.53a51.94 51.94 0 0 0 -85.167 20.57 37.506 37.506 0 0 0 -29.666 0 51.94 51.94 0 0 0 -85.167-20.57v-46.53a16 16 0 0 1 32 0v8h16v-8a32 32 0 0 0 -64 0v80h.169c-.1 1.322-.169 2.653-.169 4a52.059 52.059 0 0 0 52 52zm128-88a36 36 0 1 1 -36 36 36.04 36.04 0 0 1 36-36zm-128 0a36 36 0 1 1 -36 36 36.04 36.04 0 0 1 36-36z" data-original="#000000" class="active-path" data-old_color="#000000" fill="#494D51"/><path d="m43.029 116h33.941v16h-33.941z" transform="matrix(.707 -.707 .707 .707 -70.108 78.745)" data-original="#000000" class="active-path" data-old_color="#000000" fill="#494D51"/><path d="m171.029 116h33.941v16h-33.941z" transform="matrix(.707 -.707 .707 .707 -32.617 169.255)" data-original="#000000" class="active-path" data-old_color="#000000" fill="#494D51"/><path d="m493.657 74.343-56-56a8 8 0 0 0 -5.657-2.343h-160a8 8 0 0 0 -8 8v136h16v-128h144v48a8 8 0 0 0 8 8h48v224h-48v16h56a8 8 0 0 0 8-8v-240a8 8 0 0 0 -2.343-5.657zm-53.657-2.343v-28.687l28.687 28.687z" data-original="#000000" class="active-path" data-old_color="#000000" fill="#494D51"/></g></g> </svg>
